<svg xmlns="http://www.w3.org/2000/svg" enable-background="new 0 0 140 140" viewBox="0 0 140 140" id="coin"><circle cx="86.667" cy="70" r="33.333" fill="#fed35b"></circle><circle cx="86.667" cy="70" r="27.279" fill="#eac355"></circle><path fill="#fed35b" d="M85.4890442,91.5251236v-3.010994c-2.208046-0.2783127-4.0031128-0.7728195-5.3851852-1.4842987
				c-1.3820724-0.7114868-2.5760498-1.8604889-3.5819397-3.4470062c-1.0058899-1.5862732-1.5906143-3.5244446-1.7541733-5.8145294
				l4.4406281-0.8341446c0.3434753,2.3716049,0.9486465,4.1135025,1.815506,5.225708
				c1.2430496,1.5701675,2.7314377,2.4452057,4.4651642,2.6251221V70.7270813
				c-1.815506-0.3434753-3.6719055-1.046524-5.569191-2.1099091c-1.406601-0.7850876-2.490181-1.8727493-3.2507324-3.2630005
				c-0.7605515-1.3899994-1.1408234-2.9686012-1.1408234-4.7350388c0-3.1403313,1.1121979-5.6834183,3.3366013-7.6300278
				c1.4883881-1.3084717,3.696434-2.1099091,6.6241455-2.4043159v-2.1099129h2.6005859v2.1099129
				c2.5678787,0.2453384,4.604187,0.9977074,6.1089325,2.2571144c1.9299927,1.6031342,3.0912628,3.8027458,3.4838028,6.5996056
				l-4.5632935,0.6869469c-0.2616959-1.7334671-0.8055267-3.0626411-1.6315002-3.9867516
				c-0.8259735-0.923851-1.9586258-1.5333633-3.3979416-1.8277702v12.7330704
				c2.2244034,0.5560989,3.696434,0.9897842,4.4160919,1.300293c1.3739014,0.6051712,2.494278,1.3411865,3.3611374,2.208046
				c0.8668671,0.8671188,1.533371,1.8975449,1.9995117,3.0912704c0.4661407,1.1939774,0.6992111,2.486351,0.6992111,3.8763428
				c0,3.0585556-0.973175,5.6100769-2.9195251,7.6545639c-1.9463501,2.0447464-4.4651642,3.1403351-7.556427,3.2875366v3.0600662
				H85.4890442z M85.4890442,54.2648659c-1.7173691,0.2616959-3.0708237,0.9486427-4.0603561,2.0608444
				c-0.9895325,1.1124573-1.4842987,2.4288521-1.4842987,3.9499512c0,1.5049973,0.4211655,2.7641449,1.2634964,3.7782097
				c0.8423309,1.014328,2.2693787,1.8239441,4.2811584,2.4288559V54.2648659z M88.0896301,84.7849808
				c1.7173691-0.2123718,3.1362457-0.9568176,4.2566223-2.2325821c1.1203842-1.2757568,1.6805725-2.8541031,1.6805725-4.7350311
				c0-1.6028824-0.3966293-2.8909073-1.1898956-3.8640823c-0.7932587-0.9729233-2.3756943-1.8438721-4.7472992-2.612854V84.7849808z
				"></path><circle cx="53.333" cy="70" r="33.333" fill="#fed35b"></circle><circle cx="53.333" cy="70" r="27.279" fill="#eac355"></circle><path fill="#fed35b" d="M52.1557083,91.5251236v-3.010994c-2.208046-0.2783127-4.003109-0.7728195-5.3851814-1.4842987
					c-1.3820724-0.7114868-2.5760536-1.8604889-3.5819435-3.4470062c-1.0058861-1.5862732-1.5906105-3.5244446-1.7541695-5.8145294
					l4.4406281-0.8341446c0.3434753,2.3716049,0.9486427,4.1135025,1.815506,5.225708
					c1.2430458,1.5701675,2.7314339,2.4452057,4.4651604,2.6251221V70.7270813
					c-1.815506-0.3434753-3.6719017-1.046524-5.5691833-2.1099091c-1.4066086-0.7850876-2.4901886-1.8727493-3.2507362-3.2630005
					c-0.7605515-1.3899994-1.1408234-2.9686012-1.1408234-4.7350388c0-3.1403313,1.1121979-5.6834183,3.3366013-7.6300278
					c1.4883881-1.3084717,3.696434-2.1099091,6.6241417-2.4043159v-2.1099129h2.6005898v2.1099129
					c2.5678749,0.2453384,4.604187,0.9977074,6.1089287,2.2571144c1.9299965,1.6031342,3.0912666,3.8027458,3.4838104,6.5996056
					l-4.5633011,0.6869469c-0.261692-1.7334671-0.8055267-3.0626411-1.6315002-3.9867516
					c-0.8259735-0.923851-1.9586182-1.5333633-3.3979378-1.8277702v12.7330704
					c2.2244034,0.5560989,3.696434,0.9897842,4.4160919,1.300293c1.3738976,0.6051712,2.4942741,1.3411865,3.3611374,2.208046
					c0.8668633,0.8671188,1.5333672,1.8975449,1.9995079,3.0912704c0.4661484,1.1939774,0.6992188,2.486351,0.6992188,3.8763428
					c0,3.0585556-0.973175,5.6100769-2.919529,7.6545639c-1.9463539,2.0447464-4.4651642,3.1403351-7.556427,3.2875366v3.0600662
					H52.1557083z M52.1557083,54.2648659c-1.7173691,0.2616959-3.0708199,0.9486427-4.0603523,2.0608444
					c-0.9895325,1.1124573-1.4842987,2.4288521-1.4842987,3.9499512c0,1.5049973,0.4211655,2.7641449,1.2634926,3.7782097
					c0.8423309,1.014328,2.2693825,1.8239441,4.2811584,2.4288559V54.2648659z M54.7562981,84.7849808
					c1.7173691-0.2123718,3.1362419-0.9568176,4.2566223-2.2325821c1.1203804-1.2757568,1.6805687-2.8541031,1.6805687-4.7350311
					c0-1.6028824-0.3966293-2.8909073-1.1898918-3.8640823c-0.7932625-0.9729233-2.3756943-1.8438721-4.7472992-2.612854V84.7849808
					z"></path><g opacity=".1"><path fill="#304551" d="M76.6779633,38.1909561c-2.3484421,0.7364388-4.5753937,1.7413597-6.6680984,2.9517632
			c9.9550858,5.7655449,16.656929,16.525692,16.656929,28.8569603c0,12.3320236-6.7018433,23.0921707-16.656929,28.8577118
			c2.0927048,1.2104034,4.3196564,2.2145767,6.6680984,2.951767c9.7743454-7.1926804,16.1319656-18.7702637,16.1319656-31.8087234
			C92.8099289,56.961216,86.4519348,45.3836327,76.6779633,38.1909561z"></path></g></svg>