<svg xmlns="http://www.w3.org/2000/svg" xmlns:xlink="http://www.w3.org/1999/xlink" enable-background="new 0 0 32 32" viewBox="0 0 32 32" id="store"><defs><linearGradient id="a"><stop offset="0" stop-color="#000092"></stop><stop offset="1" stop-color="#ff00f3"></stop></linearGradient><linearGradient id="b" x1="3.5" x2="25" y1="16" y2="16" gradientUnits="userSpaceOnUse" xlink:href="#a"></linearGradient></defs><path fill="url(#b)" d="M 8.5 4.5 C 8.224 4.5 8 4.724 8 5 L 8 6.5 L 6 6.5 C 5.803 6.5 5.6229687 6.615875 5.5429688 6.796875 L 3.5429688 11.296875 C 3.5419688 11.297875 3.5439687 11.299781 3.5429688 11.300781 C 3.5309687 11.328781 3.5274844 11.361578 3.5214844 11.392578 C 3.5134844 11.427578 3.5019531 11.461094 3.5019531 11.496094 C 3.5019531 11.497094 3.5 11.499 3.5 11.5 L 3.5 12.5 C 3.5 13.603 4.397 14.5 5.5 14.5 L 5.5 24.5 L 4 24.5 C 3.724 24.5 3.5 24.724 3.5 25 L 3.5 27 C 3.5 27.276 3.724 27.5 4 27.5 L 28 27.5 C 28.276 27.5 28.5 27.276 28.5 27 L 28.5 25 C 28.5 24.724 28.276 24.5 28 24.5 L 26.5 24.5 L 26.5 14.5 C 27.603 14.5 28.5 13.603 28.5 12.5 L 28.5 11.5 C 28.5 11.499 28.498047 11.497094 28.498047 11.496094 C 28.498047 11.462094 28.486516 11.427578 28.478516 11.392578 C 28.471516 11.361578 28.469031 11.329781 28.457031 11.300781 C 28.456031 11.299781 28.458031 11.297875 28.457031 11.296875 L 26.457031 6.796875 C 26.377031 6.615875 26.197 6.5 26 6.5 L 24 6.5 L 24 5 C 24 4.724 23.776 4.5 23.5 4.5 L 8.5 4.5 z M 9 5.5 L 23 5.5 L 23 6.5 L 21 6.5 L 18.5 6.5 L 13.5 6.5 L 11 6.5 L 9 6.5 L 9 5.5 z M 6.3242188 7.5 L 7.8066406 7.5 L 6.5253906 11.341797 C 6.5163906 11.368797 6.519625 11.395828 6.515625 11.423828 C 6.511625 11.448828 6.5 11.473 6.5 11.5 L 6.5 12.5 C 6.5 13.051 6.052 13.5 5.5 13.5 C 4.948 13.5 4.5 13.051 4.5 12.5 L 4.5 11.605469 L 6.3242188 7.5 z M 8.859375 7.5 L 10.376953 7.5 L 9.5117188 11.392578 C 9.5077188 11.411578 9.5117656 11.429266 9.5097656 11.447266 C 9.5087656 11.465266 9.5 11.481 9.5 11.5 L 9.5 12.5 C 9.5 13.051 9.052 13.5 8.5 13.5 C 7.948 13.5 7.5 13.051 7.5 12.5 L 7.5 11.582031 L 8.859375 7.5 z M 11.400391 7.5 L 12.941406 7.5 L 12.503906 11.445312 C 12.502906 11.455312 12.505859 11.462656 12.505859 11.472656 C 12.504859 11.481656 12.5 11.49 12.5 11.5 L 12.5 12.5 C 12.5 13.051 12.052 13.5 11.5 13.5 C 10.948 13.5 10.5 13.051 10.5 12.5 L 10.5 11.556641 L 11.400391 7.5 z M 13.947266 7.5 L 15.5 7.5 L 15.5 11.5 L 15.5 12.5 C 15.5 13.051 15.052 13.5 14.5 13.5 C 13.948 13.5 13.5 13.051 13.5 12.5 L 13.5 11.529297 L 13.947266 7.5 z M 16.5 7.5 L 18.052734 7.5 L 18.5 11.529297 L 18.5 12.5 C 18.5 13.051 18.052 13.5 17.5 13.5 C 16.948 13.5 16.5 13.051 16.5 12.5 L 16.5 11.5 L 16.5 7.5 z M 19.058594 7.5 L 20.599609 7.5 L 21.5 11.556641 L 21.5 12.5 C 21.5 13.051 21.052 13.5 20.5 13.5 C 19.948 13.5 19.5 13.051 19.5 12.5 L 19.5 11.5 C 19.5 11.49 19.494141 11.481656 19.494141 11.472656 C 19.494141 11.462656 19.499047 11.455313 19.498047 11.445312 L 19.058594 7.5 z M 21.623047 7.5 L 23.138672 7.5 L 24.498047 11.582031 L 24.498047 12.5 L 24.5 12.5 C 24.5 13.051 24.052 13.5 23.5 13.5 C 22.948 13.5 22.5 13.051 22.5 12.5 L 22.5 11.5 C 22.5 11.481 22.490281 11.465266 22.488281 11.447266 C 22.486281 11.428266 22.492281 11.411578 22.488281 11.392578 L 21.623047 7.5 z M 24.193359 7.5 L 25.675781 7.5 L 27.5 11.605469 L 27.5 12.5 C 27.5 13.051 27.052 13.5 26.5 13.5 C 25.948 13.5 25.5 13.051 25.5 12.5 L 25.5 11.5 C 25.5 11.473 25.488375 11.449828 25.484375 11.423828 C 25.480375 11.396828 25.483609 11.368797 25.474609 11.341797 L 24.193359 7.5 z M 7 13.808594 C 7.367 14.228594 7.9 14.5 8.5 14.5 L 8.5 21 C 8.5 21.276 8.724 21.5 9 21.5 L 17 21.5 C 17.276 21.5 17.5 21.276 17.5 21 L 17.5 14.5 C 18.1 14.5 18.633 14.228594 19 13.808594 C 19.367 14.228594 19.9 14.5 20.5 14.5 C 21.1 14.5 21.633 14.228594 22 13.808594 C 22.367 14.228594 22.9 14.5 23.5 14.5 C 24.1 14.5 24.633 14.228594 25 13.808594 C 25.143 13.972594 25.311 14.112656 25.5 14.222656 L 25.5 24.5 L 24.5 24.5 L 24.5 18 C 24.5 17.724 24.276 17.5 24 17.5 L 20 17.5 C 19.724 17.5 19.5 17.724 19.5 18 L 19.5 24.5 L 6.5 24.5 L 6.5 14.222656 C 6.689 14.112656 6.857 13.972594 7 13.808594 z M 10 13.808594 C 10.367 14.228594 10.9 14.5 11.5 14.5 C 12.1 14.5 12.633 14.228594 13 13.808594 C 13.247 14.091594 13.569453 14.301156 13.939453 14.410156 L 13.292969 15.058594 C 13.097969 15.253594 13.097969 15.570625 13.292969 15.765625 C 13.390969 15.863625 13.518484 15.910156 13.646484 15.910156 C 13.774484 15.910156 13.903953 15.862625 14.001953 15.765625 L 15.595703 14.171875 C 15.748703 14.071875 15.881953 13.945594 16.001953 13.808594 C 16.144953 13.972594 16.312953 14.112656 16.501953 14.222656 L 16.501953 14.292969 L 15.292969 15.5 C 15.097969 15.695 15.097969 16.012031 15.292969 16.207031 C 15.390969 16.305031 15.518484 16.353516 15.646484 16.353516 C 15.774484 16.353516 15.903953 16.304031 16.001953 16.207031 L 16.501953 15.707031 L 16.501953 20.5 L 9.5019531 20.5 L 9.5019531 14.222656 C 9.6903879 14.112784 9.85735 13.972192 10 13.808594 z M 12.427734 16.130859 C 12.299609 16.130859 12.170266 16.179844 12.072266 16.277344 L 11.878906 16.470703 C 11.683906 16.665703 11.683906 16.982734 11.878906 17.177734 C 11.976906 17.275734 12.104422 17.324219 12.232422 17.324219 C 12.360422 17.324219 12.489891 17.274734 12.587891 17.177734 L 12.78125 16.984375 C 12.97625 16.789375 12.97625 16.472344 12.78125 16.277344 C 12.68375 16.179844 12.555859 16.130859 12.427734 16.130859 z M 14.621094 16.378906 C 14.492844 16.378906 14.365078 16.427891 14.267578 16.525391 L 14.074219 16.720703 C 13.879219 16.915703 13.879219 17.232734 14.074219 17.427734 C 14.172219 17.525734 14.299734 17.572266 14.427734 17.572266 C 14.555734 17.572266 14.68325 17.524734 14.78125 17.427734 L 14.976562 17.232422 C 15.171563 17.037422 15.171563 16.720391 14.976562 16.525391 C 14.879062 16.427891 14.749344 16.378906 14.621094 16.378906 z M 20.5 18.5 L 23.5 18.5 L 23.5 24.5 L 20.5 24.5 L 20.5 18.5 z M 4.5 25.5 L 6 25.5 L 20 25.5 L 24 25.5 L 26 25.5 L 27.5 25.5 L 27.5 26.5 L 4.5 26.5 L 4.5 25.5 z "></path></svg>